<svg width="18" height="18" viewBox="0 0 18 18" fill="none" xmlns="http://www.w3.org/2000/svg">
<g id="book 1">
<path id="Vector" d="M1.125 3.1815C2.12063 2.76525 3.54825 2.31638 4.9365 2.17688C6.43275 2.02613 7.70175 2.24775 8.4375 3.02288V13.9871C7.38562 13.3909 6.0525 13.3088 4.82288 13.4325C3.49538 13.5675 2.15663 13.9511 1.125 14.3449V3.1815ZM9.5625 3.02288C10.2983 2.24775 11.5673 2.02613 13.0635 2.17688C14.4518 2.31638 15.8794 2.76525 16.875 3.1815V14.3449C15.8422 13.9511 14.5046 13.5664 13.1771 13.4336C11.9464 13.3088 10.6144 13.3898 9.5625 13.9871V3.02288ZM9 2.00588C7.89187 1.053 6.28538 0.911253 4.82288 1.0575C3.11963 1.22963 1.40062 1.8135 0.329625 2.30063C0.231355 2.34532 0.148022 2.41735 0.0895736 2.50812C0.031125 2.59888 2.98928e-05 2.70455 0 2.8125L0 15.1875C2.60572e-05 15.2816 0.0236668 15.3742 0.0687567 15.4568C0.113847 15.5394 0.178944 15.6094 0.258087 15.6604C0.33723 15.7113 0.427888 15.7416 0.521756 15.7484C0.615625 15.7552 0.709704 15.7383 0.795375 15.6994C1.78763 15.2494 3.38625 14.7083 4.93538 14.5519C6.5205 14.3921 7.84912 14.6498 8.56125 15.5385C8.61396 15.6042 8.68074 15.6572 8.75668 15.6937C8.83262 15.7301 8.91577 15.749 9 15.749C9.08423 15.749 9.16738 15.7301 9.24332 15.6937C9.31925 15.6572 9.38604 15.6042 9.43875 15.5385C10.1509 14.6498 11.4795 14.3921 13.0635 14.5519C14.6138 14.7083 16.2135 15.2494 17.2046 15.6994C17.2903 15.7383 17.3844 15.7552 17.4782 15.7484C17.5721 15.7416 17.6628 15.7113 17.7419 15.6604C17.8211 15.6094 17.8862 15.5394 17.9312 15.4568C17.9763 15.3742 18 15.2816 18 15.1875V2.8125C18 2.70455 17.9689 2.59888 17.9104 2.50812C17.852 2.41735 17.7686 2.34532 17.6704 2.30063C16.5994 1.8135 14.8804 1.22963 13.1771 1.0575C11.7146 0.910128 10.1081 1.053 9 2.00588Z" fill="white"/>
</g>
</svg>
