<svg width="22" height="22" viewBox="0 0 22 22" fill="none" xmlns="http://www.w3.org/2000/svg">
<g id="Chat" clip-path="url(#clip0_51_201)">
<path id="Vector" d="M19.25 1.375C19.6147 1.375 19.9644 1.51987 20.2223 1.77773C20.4801 2.03559 20.625 2.38533 20.625 2.75V13.75C20.625 14.1147 20.4801 14.4644 20.2223 14.7223C19.9644 14.9801 19.6147 15.125 19.25 15.125H6.06925C5.33996 15.1252 4.6406 15.415 4.125 15.9308L1.375 18.6807V2.75C1.375 2.38533 1.51987 2.03559 1.77773 1.77773C2.03559 1.51987 2.38533 1.375 2.75 1.375H19.25ZM2.75 0C2.02065 0 1.32118 0.289731 0.805456 0.805456C0.289731 1.32118 0 2.02065 0 2.75L0 20.3404C2.88955e-05 20.4764 0.0404148 20.6094 0.116046 20.7225C0.191678 20.8355 0.299155 20.9236 0.424874 20.9756C0.550594 21.0276 0.688904 21.0411 0.8223 21.0144C0.955695 20.9877 1.07818 20.9221 1.17425 20.8258L5.09713 16.9029C5.35493 16.645 5.70461 16.5001 6.06925 16.5H19.25C19.9793 16.5 20.6788 16.2103 21.1945 15.6945C21.7103 15.1788 22 14.4793 22 13.75V2.75C22 2.02065 21.7103 1.32118 21.1945 0.805456C20.6788 0.289731 19.9793 0 19.25 0L2.75 0Z" fill="black"/>
</g>
<defs>
<clipPath id="clip0_51_201">
<rect width="22" height="22" fill="white"/>
</clipPath>
</defs>
</svg>
