<svg width="26" height="26" viewBox="0 0 26 26" fill="none" xmlns="http://www.w3.org/2000/svg">
<g id="Document">
<path id="Vector" d="M15.0312 1.625H7.58333C6.86504 1.625 6.17616 1.92461 5.66825 2.45792C5.16034 2.99122 4.875 3.71454 4.875 4.46875V21.5312C4.875 22.2855 5.16034 23.0088 5.66825 23.5421C6.17616 24.0754 6.86504 24.375 7.58333 24.375H18.4167C19.135 24.375 19.8238 24.0754 20.3317 23.5421C20.8397 23.0088 21.125 22.2855 21.125 21.5312V8.02344L15.0312 1.625ZM15.0312 3.04688V5.89062C15.0312 6.45628 15.2453 6.99877 15.6262 7.39875C16.0071 7.79873 16.5238 8.02344 17.0625 8.02344H19.7708V21.5312C19.7708 21.9084 19.6282 22.27 19.3742 22.5367C19.1203 22.8033 18.7758 22.9531 18.4167 22.9531H7.58333C7.22419 22.9531 6.87975 22.8033 6.62579 22.5367C6.37184 22.27 6.22917 21.9084 6.22917 21.5312V4.46875C6.22917 4.09165 6.37184 3.72999 6.62579 3.46333C6.87975 3.19668 7.22419 3.04688 7.58333 3.04688H15.0312Z" fill="#C0C1C2"/>
<path id="Vector_2" d="M8.80208 11.375C8.62251 11.375 8.45029 11.4435 8.32331 11.5654C8.19634 11.6873 8.125 11.8526 8.125 12.025C8.125 12.1974 8.19634 12.3627 8.32331 12.4846C8.45029 12.6065 8.62251 12.675 8.80208 12.675H15.5729C15.7525 12.675 15.9247 12.6065 16.0517 12.4846C16.1787 12.3627 16.25 12.1974 16.25 12.025C16.25 11.8526 16.1787 11.6873 16.0517 11.5654C15.9247 11.4435 15.7525 11.375 15.5729 11.375H8.80208ZM8.125 14.625C8.125 14.4526 8.19634 14.2873 8.32331 14.1654C8.45029 14.0435 8.62251 13.975 8.80208 13.975H15.5729C15.7525 13.975 15.9247 14.0435 16.0517 14.1654C16.1787 14.2873 16.25 14.4526 16.25 14.625C16.25 14.7974 16.1787 14.9627 16.0517 15.0846C15.9247 15.2065 15.7525 15.275 15.5729 15.275H8.80208C8.62251 15.275 8.45029 15.2065 8.32331 15.0846C8.19634 14.9627 8.125 14.7974 8.125 14.625ZM8.125 17.225C8.125 17.0526 8.19634 16.8873 8.32331 16.7654C8.45029 16.6435 8.62251 16.575 8.80208 16.575H11.5104C11.69 16.575 11.8622 16.6435 11.9892 16.7654C12.1162 16.8873 12.1875 17.0526 12.1875 17.225C12.1875 17.3974 12.1162 17.5627 11.9892 17.6846C11.8622 17.8065 11.69 17.875 11.5104 17.875H8.80208C8.62251 17.875 8.45029 17.8065 8.32331 17.6846C8.19634 17.5627 8.125 17.3974 8.125 17.225Z" fill="#C0C1C2"/>
</g>
</svg>
