<svg width="22" height="22" viewBox="0 0 22 22" fill="none" xmlns="http://www.w3.org/2000/svg">
<g id="feather 1" clip-path="url(#clip0_51_183)">
<path id="Vector" d="M21.7346 0.730069C21.4954 0.486694 21.1709 0.332694 20.8546 0.230944C20.4817 0.119757 20.0975 0.0505776 19.7092 0.0246942C18.8568 -0.0426808 17.7925 0.0246942 16.6128 0.265319C14.2519 0.749319 11.363 1.94557 8.68312 4.26244C6.00325 6.57932 4.32713 9.38294 3.51588 11.7191C3.11162 12.8837 2.91088 13.9658 2.926 14.8376C2.93288 15.2721 2.99475 15.6901 3.13775 16.0476C3.16067 16.1035 3.18633 16.1594 3.21475 16.2153C2.13317 17.7445 1.09779 19.3058 0.11 20.8972C0.0105324 21.058 -0.022555 21.2511 0.0177252 21.4359C0.0580054 21.6206 0.1685 21.7824 0.325875 21.8872C0.403572 21.9377 0.490615 21.9721 0.581854 21.9884C0.673092 22.0047 0.766671 22.0026 0.857054 21.982C0.947437 21.9615 1.03279 21.9231 1.10805 21.869C1.18332 21.8149 1.24698 21.7463 1.29525 21.6672C2.24117 20.1449 3.23066 18.6501 4.2625 17.1847C4.65438 17.3786 5.1095 17.4528 5.57975 17.4349C6.28512 17.4074 7.0895 17.1764 7.94887 16.7612C9.66763 15.9293 11.7219 14.3041 13.8655 11.7534L15.9528 9.62219C16.085 9.48616 16.1591 9.30389 16.1591 9.11413C16.1591 8.92438 16.085 8.7421 15.9528 8.60607L14.9504 7.58307L16.753 7.87044C16.8637 7.88832 16.977 7.87888 17.0832 7.84293C17.1893 7.80698 17.2851 7.74562 17.3621 7.66419L18.2738 6.72369C19.1854 5.78869 20.0503 4.90182 20.6979 4.12219C21.1296 3.60244 21.5023 3.08819 21.7346 2.60007C21.9587 2.12569 22.1169 1.53719 21.8886 0.966569C21.8542 0.877934 21.8018 0.797405 21.7346 0.730069ZM5.13288 15.9774C7.40438 12.8892 9.955 9.92057 12.7999 7.41669L14.4636 9.11344L12.8535 10.7579L12.8164 10.7992C10.7539 13.2591 8.84125 14.7413 7.348 15.4646C6.6 15.8262 5.98675 15.9843 5.5275 16.0008C5.39545 16.0072 5.2631 16.0003 5.13288 15.9774ZM14.4403 6.04994C16.2415 4.63644 18.1528 3.41819 20.1768 2.47494C20.0048 2.72315 19.8213 2.96312 19.6268 3.19407C19.019 3.92694 18.2133 4.75332 17.3154 5.67457L16.6141 6.39507L14.4403 6.04994ZM19.041 1.43407C13.1917 4.32707 8.31188 9.34994 4.32987 14.6822C4.3395 14.0442 4.49625 13.1889 4.83863 12.1989C5.5715 10.0883 7.10737 7.50332 9.58925 5.35694C12.0739 3.21057 14.74 2.11194 16.8905 1.67194C17.5978 1.52218 18.3181 1.4425 19.041 1.43407Z" fill="white"/>
</g>
<defs>
<clipPath id="clip0_51_183">
<rect width="22" height="22" fill="white"/>
</clipPath>
</defs>
</svg>
