<svg width="22" height="22" viewBox="0 0 22 22" fill="none" xmlns="http://www.w3.org/2000/svg">
<g id="feather 1" clip-path="url(#clip0_51_212)">
<path id="Vector" d="M21.7346 0.730125C21.4954 0.48675 21.1709 0.33275 20.8546 0.231C20.4817 0.119812 20.0975 0.0506334 19.7092 0.0247499C18.8568 -0.042625 17.7925 0.02475 16.6128 0.265375C14.2519 0.749375 11.363 1.94562 8.68312 4.2625C6.00325 6.57937 4.32713 9.383 3.51588 11.7191C3.11162 12.8837 2.91088 13.9659 2.926 14.8376C2.93288 15.2721 2.99475 15.6901 3.13775 16.0476C3.16067 16.1035 3.18633 16.1595 3.21475 16.2154C2.13317 17.7445 1.09779 19.3059 0.11 20.8972C0.0105324 21.058 -0.022555 21.2512 0.0177252 21.4359C0.0580054 21.6206 0.1685 21.7825 0.325875 21.8872C0.403572 21.9378 0.490615 21.9722 0.581854 21.9885C0.673092 22.0048 0.766671 22.0026 0.857054 21.9821C0.947437 21.9616 1.03279 21.9232 1.10805 21.8691C1.18332 21.815 1.24698 21.7464 1.29525 21.6672C2.24117 20.145 3.23066 18.6502 4.2625 17.1847C4.65438 17.3786 5.1095 17.4529 5.57975 17.435C6.28512 17.4075 7.0895 17.1765 7.94887 16.7612C9.66763 15.9294 11.7219 14.3041 13.8655 11.7535L15.9528 9.62225C16.085 9.48621 16.1591 9.30394 16.1591 9.11419C16.1591 8.92443 16.085 8.74216 15.9528 8.60612L14.9504 7.58312L16.753 7.8705C16.8637 7.88838 16.977 7.87893 17.0832 7.84299C17.1893 7.80704 17.2851 7.74568 17.3621 7.66425L18.2738 6.72375C19.1854 5.78875 20.0503 4.90187 20.6979 4.12225C21.1296 3.6025 21.5023 3.08825 21.7346 2.60012C21.9587 2.12575 22.1169 1.53725 21.8886 0.966625C21.8542 0.87799 21.8018 0.79746 21.7346 0.730125ZM5.13288 15.9775C7.40438 12.8892 9.955 9.92062 12.7999 7.41675L14.4636 9.1135L12.8535 10.758L12.8164 10.7992C10.7539 13.2591 8.84125 14.7414 7.348 15.4646C6.6 15.8262 5.98675 15.9844 5.5275 16.0009C5.39545 16.0072 5.2631 16.0003 5.13288 15.9775ZM14.4403 6.05C16.2415 4.6365 18.1528 3.41825 20.1768 2.475C20.0048 2.7232 19.8213 2.96318 19.6268 3.19412C19.019 3.927 18.2133 4.75337 17.3154 5.67462L16.6141 6.39512L14.4403 6.05ZM19.041 1.43412C13.1917 4.32712 8.31188 9.35 4.32987 14.6822C4.3395 14.0442 4.49625 13.189 4.83863 12.199C5.5715 10.0884 7.10737 7.50337 9.58925 5.357C12.0739 3.21062 14.74 2.112 16.8905 1.672C17.5978 1.52223 18.3181 1.44255 19.041 1.43412Z" fill="black"/>
</g>
<defs>
<clipPath id="clip0_51_212">
<rect width="22" height="22" fill="white"/>
</clipPath>
</defs>
</svg>
