<svg width="22" height="22" viewBox="0 0 22 22" fill="none" xmlns="http://www.w3.org/2000/svg">
<g id="Journal">
<path id="Vector" d="M10.375 13.375C10.5739 13.375 10.7646 13.4541 10.9053 13.5947C11.0459 13.7354 11.125 13.9261 11.125 14.125C11.125 14.3239 11.0459 14.5146 10.9053 14.6553C10.7646 14.7959 10.5739 14.875 10.375 14.875H7.875C7.67609 14.875 7.48538 14.7959 7.34473 14.6553C7.20407 14.5146 7.125 14.3239 7.125 14.125C7.125 13.9261 7.20407 13.7354 7.34473 13.5947C7.48538 13.4541 7.67609 13.375 7.875 13.375H10.375ZM14.125 10.875C14.3239 10.875 14.5146 10.9541 14.6553 11.0947C14.7959 11.2354 14.875 11.4261 14.875 11.625C14.875 11.8239 14.7959 12.0146 14.6553 12.1553C14.5146 12.2959 14.3239 12.375 14.125 12.375H7.875C7.67609 12.375 7.48538 12.2959 7.34473 12.1553C7.20407 12.0146 7.125 11.8239 7.125 11.625C7.125 11.4261 7.20407 11.2354 7.34473 11.0947C7.48538 10.9541 7.67609 10.875 7.875 10.875H14.125ZM14.125 8.375C14.3239 8.375 14.5146 8.45407 14.6553 8.59473C14.7959 8.73538 14.875 8.92609 14.875 9.125C14.875 9.32391 14.7959 9.51462 14.6553 9.65527C14.5146 9.79593 14.3239 9.875 14.125 9.875H7.875C7.67609 9.875 7.48538 9.79593 7.34473 9.65527C7.20407 9.51462 7.125 9.32391 7.125 9.125C7.125 8.92609 7.20407 8.73538 7.34473 8.59473C7.48538 8.45407 7.67609 8.375 7.875 8.375H14.125ZM14.125 5.875C14.3239 5.875 14.5146 5.95407 14.6553 6.09473C14.7959 6.23538 14.875 6.42609 14.875 6.625C14.875 6.82391 14.7959 7.01462 14.6553 7.15527C14.5146 7.29593 14.3239 7.375 14.125 7.375H7.875C7.67609 7.375 7.48538 7.29593 7.34473 7.15527C7.20407 7.01462 7.125 6.82391 7.125 6.625C7.125 6.42609 7.20407 6.23538 7.34473 6.09473C7.48538 5.95407 7.67609 5.875 7.875 5.875H14.125Z" fill="black" stroke="black" stroke-width="0.25"/>
<path id="Vector_2" d="M17.25 0.875C17.9462 0.875 18.6142 1.15127 19.1064 1.64355C19.5987 2.13584 19.875 2.80381 19.875 3.5V18.5C19.875 19.1962 19.5987 19.8642 19.1064 20.3564C18.6142 20.8487 17.9462 21.125 17.25 21.125H4.75C4.05381 21.125 3.38584 20.8487 2.89355 20.3564C2.40127 19.8642 2.125 19.1962 2.125 18.5V17.125H3.625V18.5C3.625 18.7984 3.74312 19.0849 3.9541 19.2959C4.16508 19.5069 4.45163 19.625 4.75 19.625H17.25C17.5484 19.625 17.8349 19.5069 18.0459 19.2959C18.2569 19.0849 18.375 18.7984 18.375 18.5V3.5C18.375 3.20163 18.2569 2.91508 18.0459 2.7041C17.8349 2.49312 17.5484 2.375 17.25 2.375H4.75C4.45163 2.375 4.16508 2.49312 3.9541 2.7041C3.74312 2.91508 3.625 3.20163 3.625 3.5V4.875H2.125V3.5C2.125 2.80381 2.40127 2.13584 2.89355 1.64355C3.38584 1.15127 4.05381 0.875 4.75 0.875H17.25Z" fill="black" stroke="black" stroke-width="0.25"/>
<path id="Vector_3" d="M2.875 13.375C3.07391 13.375 3.26462 13.4541 3.40527 13.5947C3.54593 13.7354 3.625 13.9261 3.625 14.125V14.625H4.125C4.32391 14.625 4.51462 14.7041 4.65527 14.8447C4.79593 14.9854 4.875 15.1761 4.875 15.375C4.875 15.5739 4.79593 15.7646 4.65527 15.9053C4.51462 16.0459 4.32391 16.125 4.125 16.125H1.625C1.42609 16.125 1.23538 16.0459 1.09473 15.9053C0.954074 15.7646 0.875 15.5739 0.875 15.375C0.875 15.1761 0.954074 14.9854 1.09473 14.8447C1.23538 14.7041 1.42609 14.625 1.625 14.625H2.125V14.125C2.125 13.9261 2.20407 13.7354 2.34473 13.5947C2.48538 13.4541 2.67609 13.375 2.875 13.375ZM2.875 9.625C3.07391 9.625 3.26462 9.70407 3.40527 9.84473C3.54593 9.98538 3.625 10.1761 3.625 10.375V10.875H4.125C4.32391 10.875 4.51462 10.9541 4.65527 11.0947C4.79593 11.2354 4.875 11.4261 4.875 11.625C4.875 11.8239 4.79593 12.0146 4.65527 12.1553C4.51462 12.2959 4.32391 12.375 4.125 12.375H1.625C1.42609 12.375 1.23538 12.2959 1.09473 12.1553C0.954074 12.0146 0.875 11.8239 0.875 11.625C0.875 11.4261 0.954074 11.2354 1.09473 11.0947C1.23538 10.9541 1.42609 10.875 1.625 10.875H2.125V10.375C2.125 10.1761 2.20407 9.98538 2.34473 9.84473C2.48538 9.70407 2.67609 9.625 2.875 9.625ZM3.02246 5.88965C3.16645 5.91852 3.2999 5.98935 3.40527 6.09473C3.54593 6.23538 3.625 6.42609 3.625 6.625V7.125H4.125C4.32391 7.125 4.51462 7.20407 4.65527 7.34473C4.79593 7.48538 4.875 7.67609 4.875 7.875C4.875 8.07391 4.79593 8.26462 4.65527 8.40527C4.51462 8.54593 4.32391 8.625 4.125 8.625H1.625C1.42609 8.625 1.23538 8.54593 1.09473 8.40527C0.954074 8.26462 0.875 8.07391 0.875 7.875C0.875 7.67609 0.954074 7.48538 1.09473 7.34473C1.23538 7.20407 1.42609 7.125 1.625 7.125H2.125V6.625C2.125 6.42609 2.20407 6.23538 2.34473 6.09473C2.48538 5.95407 2.67609 5.875 2.875 5.875L3.02246 5.88965Z" fill="black" stroke="black" stroke-width="0.25"/>
</g>
</svg>
