<svg width="22" height="22" viewBox="0 0 22 22" fill="none" xmlns="http://www.w3.org/2000/svg">
<g id="Person">
<path id="Vector" d="M11 12.542C15.193 12.542 17.7277 13.8 19.2139 15.2861C20.6962 16.7685 21.1249 18.4675 21.125 19.333C21.125 19.7715 21.0151 20.1091 20.8438 20.3662C20.6729 20.6225 20.4458 20.7917 20.2227 20.9033C20 21.0147 19.7787 21.0703 19.6143 21.0977C19.5319 21.1114 19.4629 21.1176 19.4141 21.1211C19.3897 21.1228 19.3701 21.1245 19.3564 21.125H2.64355C2.62988 21.1245 2.61028 21.1228 2.58594 21.1211C2.53708 21.1176 2.46808 21.1114 2.38574 21.0977C2.22131 21.0703 2.00002 21.0147 1.77734 20.9033C1.55422 20.7917 1.32711 20.6225 1.15625 20.3662C0.984862 20.1091 0.875 19.7715 0.875 19.333C0.875107 18.4675 1.30381 16.7685 2.78613 15.2861C4.27231 13.8 6.80697 12.542 11 12.542ZM11 14.458C7.21143 14.458 5.20046 15.5827 4.1416 16.6416C3.13834 17.6449 2.84949 18.7273 2.80176 19.2021H19.1992C19.1526 18.728 18.8621 17.6453 17.8584 16.6416C16.7995 15.5827 14.7886 14.458 11 14.458ZM11 0.875C12.3592 0.875 13.6629 1.41485 14.624 2.37598C15.5851 3.3371 16.125 4.64077 16.125 6C16.125 7.35923 15.5851 8.6629 14.624 9.62402C13.6629 10.5851 12.3592 11.125 11 11.125C9.64077 11.125 8.3371 10.5851 7.37598 9.62402C6.41485 8.6629 5.875 7.35923 5.875 6C5.875 4.64077 6.41485 3.3371 7.37598 2.37598C8.3371 1.41485 9.64077 0.875 11 0.875ZM11 2.79199C10.1491 2.79199 9.33312 3.12977 8.73145 3.73145C8.12977 4.33312 7.79199 5.1491 7.79199 6C7.79199 6.8509 8.12977 7.66688 8.73145 8.26855C9.33312 8.87023 10.1491 9.20801 11 9.20801C11.8509 9.20801 12.6669 8.87023 13.2686 8.26855C13.8702 7.66688 14.208 6.8509 14.208 6C14.208 5.1491 13.8702 4.33312 13.2686 3.73145C12.6669 3.12977 11.8509 2.79199 11 2.79199Z" fill="black" stroke="black" stroke-width="0.25"/>
</g>
</svg>
