<svg width="22" height="22" viewBox="0 0 22 22" fill="none" xmlns="http://www.w3.org/2000/svg">
<g id="Suitcase">
<path id="Vector" d="M7.19228 3.41383C7.19228 2.73285 7.45973 2.07976 7.93578 1.59824C8.41184 1.11671 9.0575 0.846191 9.73075 0.846191L12.2692 0.846191C12.9424 0.846191 13.5881 1.11671 14.0642 1.59824C14.5402 2.07976 14.8077 2.73285 14.8077 3.41383H19.25C19.7549 3.41383 20.2392 3.61672 20.5962 3.97786C20.9532 4.33901 21.1538 4.82882 21.1538 5.33956V16.8939C21.1538 17.4047 20.9532 17.8945 20.5962 18.2556C20.2392 18.6168 19.7549 18.8197 19.25 18.8197H18.6154C18.6154 18.9899 18.5485 19.1532 18.4295 19.2736C18.3105 19.3939 18.1491 19.4616 17.9807 19.4616C17.8124 19.4616 17.651 19.3939 17.532 19.2736C17.413 19.1532 17.3461 18.9899 17.3461 18.8197H4.65382C4.65382 18.9899 4.58696 19.1532 4.46795 19.2736C4.34893 19.3939 4.18752 19.4616 4.01921 19.4616C3.8509 19.4616 3.68948 19.3939 3.57047 19.2736C3.45145 19.1532 3.38459 18.9899 3.38459 18.8197H2.74998C2.24505 18.8197 1.76079 18.6168 1.40375 18.2556C1.04671 17.8945 0.84613 17.4047 0.84613 16.8939L0.84613 5.33956C0.84613 4.82882 1.04671 4.33901 1.40375 3.97786C1.76079 3.61672 2.24505 3.41383 2.74998 3.41383H7.19228ZM8.46151 3.41383H13.5384C13.5384 3.07334 13.4047 2.7468 13.1667 2.50603C12.9287 2.26527 12.6058 2.13001 12.2692 2.13001H9.73075C9.39412 2.13001 9.07129 2.26527 8.83326 2.50603C8.59524 2.7468 8.46151 3.07334 8.46151 3.41383ZM2.74998 4.69765C2.58167 4.69765 2.42025 4.76528 2.30124 4.88566C2.18222 5.00604 2.11536 5.16932 2.11536 5.33956V16.8939C2.11536 17.0642 2.18222 17.2275 2.30124 17.3478C2.42025 17.4682 2.58167 17.5358 2.74998 17.5358H4.65382V4.69765H2.74998ZM19.8846 16.8939V5.33956C19.8846 5.16932 19.8177 5.00604 19.6987 4.88566C19.5797 4.76528 19.4183 4.69765 19.25 4.69765H17.3461V17.5358H19.25C19.4183 17.5358 19.5797 17.4682 19.6987 17.3478C19.8177 17.2275 19.8846 17.0642 19.8846 16.8939ZM16.0769 17.5358V4.69765H5.92305V17.5358H16.0769Z" fill="black"/>
</g>
</svg>
